<svg width="40" height="40" viewBox="0 0 40 40" fill="none" xmlns="http://www.w3.org/2000/svg">
<g clip-path="url(#clip0_1219_1191)">
<path d="M39.375 20C39.375 9.29688 30.7032 0.625 20 0.625C9.29691 0.625 0.625031 9.29688 0.625031 20C0.625031 29.6703 7.71019 37.6859 16.9727 39.1406V25.6008H12.0508V20H16.9727V15.7312C16.9727 10.8758 19.8633 8.19375 24.2907 8.19375C26.411 8.19375 28.6282 8.57188 28.6282 8.57188V13.3375H26.1844C23.7782 13.3375 23.0274 14.8312 23.0274 16.3633V20H28.4008L27.5414 25.6008H23.0274V39.1406C32.2899 37.6859 39.375 29.6703 39.375 20Z" fill="#EBEDFF"/>
</g>
<defs>
<clipPath id="clip0_1219_1191">
<rect width="40" height="40" fill="white"/>
</clipPath>
</defs>
</svg>
