<svg width="40" height="40" viewBox="0 0 40 40" fill="none" xmlns="http://www.w3.org/2000/svg">
<g clip-path="url(#clip0_1229_853)">
<path d="M40 20C40 20.0703 40 20.1406 40 20.2109C39.9688 23.0625 37.375 25 34.5234 25H26.875C24.8047 25 23.125 26.6797 23.125 28.75C23.125 29.0156 23.1562 29.2734 23.2031 29.5234C23.3672 30.3203 23.7109 31.0859 24.0469 31.8594C24.5234 32.9375 24.9922 34.0078 24.9922 35.1406C24.9922 37.625 23.3047 39.8828 20.8203 39.9844C20.5469 39.9922 20.2734 40 19.9922 40C8.95312 40 0 31.0469 0 20C0 8.95312 8.95312 0 20 0C31.0469 0 40 8.95312 40 20ZM10 22.5C10 21.1172 8.88281 20 7.5 20C6.11719 20 5 21.1172 5 22.5C5 23.8828 6.11719 25 7.5 25C8.88281 25 10 23.8828 10 22.5ZM10 15C11.3828 15 12.5 13.8828 12.5 12.5C12.5 11.1172 11.3828 10 10 10C8.61719 10 7.5 11.1172 7.5 12.5C7.5 13.8828 8.61719 15 10 15ZM22.5 7.5C22.5 6.11719 21.3828 5 20 5C18.6172 5 17.5 6.11719 17.5 7.5C17.5 8.88281 18.6172 10 20 10C21.3828 10 22.5 8.88281 22.5 7.5ZM30 15C31.3828 15 32.5 13.8828 32.5 12.5C32.5 11.1172 31.3828 10 30 10C28.6172 10 27.5 11.1172 27.5 12.5C27.5 13.8828 28.6172 15 30 15Z" fill="#EBEDFF"/>
</g>
<defs>
<clipPath id="clip0_1229_853">
<rect width="40" height="40" fill="white"/>
</clipPath>
</defs>
</svg>
