<svg width="20" height="18" viewBox="0 0 20 18" fill="none" xmlns="http://www.w3.org/2000/svg">
<g clip-path="url(#clip0_1219_1183)">
<path d="M12.8924 12.7465C13.8403 12.6111 14.6945 12.0729 15.2257 11.2569L20.8403 2.57292C21.2778 1.89584 21.1667 1 20.5764 0.447919C19.9861 -0.104164 19.0868 -0.152775 18.441 0.333336L10.2222 6.5C9.3889 7.125 8.89584 8.1007 8.8889 9.14236L12.8924 12.7465ZM12.2118 13.6285L8.18403 10.0035C6.10765 10.0799 4.44445 11.7917 4.44445 13.8889C4.44445 14.0243 4.4514 14.1597 4.46528 14.2917C4.52778 14.8993 4.11112 15.5556 3.50001 15.5556H3.33334C2.71876 15.5556 2.22223 16.0521 2.22223 16.6667C2.22223 17.2813 2.71876 17.7778 3.33334 17.7778H8.33334C10.4826 17.7778 12.2222 16.0382 12.2222 13.8889C12.2222 13.8021 12.2188 13.7153 12.2153 13.6285H12.2118Z" fill="white"/>
</g>
<defs>
<clipPath id="clip0_1219_1183">
<rect width="20" height="17.7778" fill="white"/>
</clipPath>
</defs>
</svg>
