<svg width="20" height="23" viewBox="0 0 20 23" fill="none" xmlns="http://www.w3.org/2000/svg">
<path d="M0 3.57142V10.2455C0 11.0045 0.299107 11.7321 0.834821 12.2679L8.69196 20.125C9.80804 21.2411 11.6161 21.2411 12.7321 20.125L18.692 14.1652C19.808 13.0491 19.808 11.2411 18.692 10.125L10.8348 2.26785C10.2991 1.73214 9.57143 1.43303 8.8125 1.43303H2.14286C0.959821 1.42857 0 2.38839 0 3.57142ZM5 7.85714C4.20982 7.85714 3.57143 7.21874 3.57143 6.42857C3.57143 5.63839 4.20982 4.99999 5 4.99999C5.79018 4.99999 6.42857 5.63839 6.42857 6.42857C6.42857 7.21874 5.79018 7.85714 5 7.85714Z" fill="white"/>
</svg>
