<svg width="35" height="40" viewBox="0 0 35 40" fill="none" xmlns="http://www.w3.org/2000/svg">
<g clip-path="url(#clip0_1219_1195)">
<path d="M35.0001 16.3992C31.5606 16.4074 28.2055 15.3348 25.4087 13.3328V27.2953C25.4078 29.8813 24.6173 32.4054 23.1431 34.5301C21.6689 36.6547 19.5812 38.2787 17.1592 39.1848C14.7371 40.0909 12.0961 40.236 9.58938 39.6006C7.08264 38.9652 4.82961 37.5797 3.13156 35.6293C1.43352 33.6789 0.371382 31.2566 0.0871853 28.6863C-0.197011 26.1159 0.310277 23.5201 1.54122 21.2458C2.77216 18.9716 4.66808 17.1273 6.97546 15.9597C9.28285 14.792 11.8917 14.3566 14.4532 14.7117V21.7344C13.2811 21.3657 12.0224 21.3768 10.8569 21.7661C9.69147 22.1554 8.67883 22.9031 7.96361 23.9022C7.2484 24.9014 6.86719 26.101 6.87443 27.3298C6.88167 28.5585 7.27698 29.7536 8.00391 30.7443C8.73085 31.7349 9.75223 32.4706 10.9222 32.8462C12.0922 33.2217 13.3509 33.218 14.5186 32.8355C15.6863 32.453 16.7034 31.7114 17.4244 30.7164C18.1455 29.7214 18.5337 28.5241 18.5337 27.2953V0H25.4087C25.4039 0.580578 25.4526 1.16036 25.554 1.73203C25.7929 3.00819 26.2896 4.22219 27.0138 5.29979C27.738 6.37739 28.6744 7.29593 29.7657 7.99922C31.3184 9.02585 33.1387 9.57305 35.0001 9.57266V16.3992Z" fill="#EBEDFF"/>
</g>
<defs>
<clipPath id="clip0_1219_1195">
<rect width="35" height="40" fill="white"/>
</clipPath>
</defs>
</svg>
