<svg width="25" height="40" viewBox="0 0 25 40" fill="none" xmlns="http://www.w3.org/2000/svg">
<g clip-path="url(#clip0_1219_1170)">
<path d="M24.2656 11.7656C25.2422 10.7891 25.2422 9.20312 24.2656 8.22656C23.2891 7.25 21.7031 7.25 20.7266 8.22656L12.5 16.4609L4.26562 8.23437C3.28906 7.25781 1.70312 7.25781 0.726562 8.23437C-0.25 9.21094 -0.25 10.7969 0.726562 11.7734L8.96094 20L0.734375 28.2344C-0.242188 29.2109 -0.242188 30.7969 0.734375 31.7734C1.71094 32.75 3.29687 32.75 4.27344 31.7734L12.5 23.5391L20.7344 31.7656C21.7109 32.7422 23.2969 32.7422 24.2734 31.7656C25.25 30.7891 25.25 29.2031 24.2734 28.2266L16.0391 20L24.2656 11.7656Z" fill="white"/>
</g>
<defs>
<clipPath id="clip0_1219_1170">
<rect width="25" height="40" fill="white"/>
</clipPath>
</defs>
</svg>
